<?xml version="1.0" encoding="UTF-8"?>
<svg fill-rule="evenodd" viewBox="0 0 132.57 28" xmlns="http://www.w3.org/2000/svg">
<g fill="#072654">
<path d="M31.565 10.567c-.209.781-.615 1.353-1.216 1.719s-1.448.549-2.537.549h-3.463l1.216-4.537h3.463c1.089 0 1.838.182 2.244.549s.506.938.297 1.719m3.586-.097c.441-1.641.257-2.902-.547-3.78s-2.216-1.318-4.232-1.318h-7.732l-4.652 17.363h3.755l1.877-6.999h2.463c.553 0 .986.089 1.305.27s.506.497.563.951l.669 5.779h4.025l-.653-5.39c-.133-1.203-.683-1.91-1.651-2.121 1.233-.356 2.266-.951 3.099-1.782.827-.82 1.418-1.848 1.711-2.975m9.124 6.049c-.312 1.171-.797 2.065-1.45 2.683-.628.607-1.472.941-2.345.926-.928 0-1.557-.305-1.889-.914s-.344-1.492-.035-2.645.801-2.057 1.481-2.707c.631-.631 1.489-.982 2.382-.976.909 0 1.527.312 1.845.938s.323 1.524.011 2.695zm1.647-6.146l-.47 1.757c-.199-.629-.617-1.165-1.179-1.512-.582-.373-1.305-.562-2.166-.562-1.056 0-2.074.273-3.047.816s-1.827 1.313-2.556 2.304a10.04 10.04 0 0 0-1.603 3.389c-.34 1.268-.408 2.386-.203 3.354s.647 1.711 1.33 2.231 1.56.781 2.631.781a5.82 5.82 0 0 0 2.46-.536 5.75 5.75 0 0 0 1.985-1.487l-.491 1.829h3.633l3.312-12.363zm3.42 9.779l-.694 2.586h10.9l.739-2.755h-6.584l8.249-7.122.667-2.488H52.064l-.738 2.755h6.144zm22.575-3.656c-.327 1.218-.812 2.13-1.453 2.733-.626.596-1.462.92-2.327.901-1.901 0-2.53-1.21-1.881-3.633.323-1.203.81-2.109 1.46-2.72.637-.605 1.488-.934 2.366-.915.909 0 1.524.305 1.839.915s.312 1.516-.008 2.72m2.125-5.657c-.837-.52-1.904-.781-3.204-.781-1.318 0-2.538.261-3.66.781-1.117.515-2.099 1.284-2.869 2.244-.805 1.004-1.387 2.167-1.709 3.413-.348 1.301-.389 2.438-.122 3.413s.822 1.724 1.668 2.244 1.924.781 3.242.781c1.25.011 2.489-.256 3.623-.781a7.99 7.99 0 0 0 2.857-2.244c.789-.976 1.359-2.113 1.707-3.413s.389-2.438.123-3.413a3.69 3.69 0 0 0-1.656-2.244m38.005 5.68c-.312 1.171-.797 2.065-1.45 2.683-.628.608-1.473.941-2.347.926-.926 0-1.556-.304-1.887-.913s-.344-1.492-.035-2.645.802-2.057 1.481-2.707c.631-.631 1.489-.982 2.382-.976.909 0 1.527.312 1.845.938s.323 1.524.01 2.695zm1.647-6.146l-.47 1.757c-.199-.629-.617-1.165-1.179-1.512-.582-.373-1.305-.562-2.167-.562-1.056 0-2.074.273-3.047.816s-1.827 1.313-2.556 2.304a10.04 10.04 0 0 0-1.603 3.389c-.34 1.268-.408 2.386-.203 3.354s.647 1.711 1.33 2.231 1.56.781 2.631.781a5.82 5.82 0 0 0 2.46-.536 5.75 5.75 0 0 0 1.984-1.487l-.491 1.829h3.633l3.312-12.363z"/>
<path d="M86.998 13.689l.926-3.366c-.315-.164-.731-.244-1.251-.244-.839.003-1.664.216-2.398.621a5.25 5.25 0 0 0-1.698 1.481l.483-1.812-1.053.002h-2.581l-3.34 12.362h3.683l1.732-6.461c.253-.942.704-1.678 1.359-2.206s1.468-.794 2.445-.794c.589-.002 1.17.14 1.692.414m10.256 2.88c-.311 1.156-.789 2.036-1.439 2.645s-1.431.913-2.343.913-1.531-.309-1.86-.926-.34-1.512-.025-2.683.802-2.069 1.465-2.695a3.32 3.32 0 0 1 2.362-.938c.892 0 1.501.325 1.823.976s.327 1.554.018 2.707m2.575-5.695c-.683-.545-1.554-.816-2.61-.816a5.79 5.79 0 0 0-2.645.633c-.811.401-1.51.996-2.036 1.732l.012-.081.62-1.97h-.712v.002h-2.883l-.915 3.418-.031.116L84.847 28h3.683l1.901-7.094c.186.634.574 1.129 1.162 1.488s1.312.536 2.173.536a6.38 6.38 0 0 0 3.062-.781c.968-.52 1.81-1.263 2.523-2.231a9.88 9.88 0 0 0 1.58-3.354c.34-1.268.41-2.397.214-3.389s-.638-1.759-1.321-2.304m32.749-.497l.002-.004h-2.231l-.199.004h-1.158l-.592.824-.145.197-.064.095-4.704 6.552-.976-7.673h-3.853l1.951 11.66L116.294 28h.122 2.2 1.516l1.044-1.479.089-.126 1.218-1.727.035-.05 5.454-7.731 4.595-6.507.006-.004z"/>
</g>
<path d="M13.794 22.734L19.888 0 8.524 7.362l-1.102 4.058 6.308-4.081-4.126 15.393z" fill="#3395ff"/>
<path d="M1.734 16.263L0 22.734h8.586L12.101 9.57 1.733 16.263" fill="#072654"/>
</svg>
