<?xml version="1.0" encoding="UTF-8"?>
<svg fill="#635bff" fill-rule="evenodd" viewBox="0 0 67.29 28" xmlns="http://www.w3.org/2000/svg">
<path d="M67.29 14.467c0-4.785-2.318-8.561-6.748-8.561-4.449 0-7.14 3.776-7.14 8.523 0 5.626 3.178 8.467 7.738 8.467 2.224 0 3.907-.505 5.178-1.215v-3.738c-1.271.636-2.729 1.028-4.579 1.028-1.813 0-3.421-.636-3.626-2.841h9.14c0-.243.037-1.215.037-1.664zm-9.234-1.776c0-2.112 1.29-2.991 2.467-2.991 1.14 0 2.355.879 2.355 2.991zM46.187 5.907c-1.832 0-3.009.86-3.664 1.458l-.243-1.159h-4.112V28l4.673-.991.019-5.29c.673.486 1.664 1.178 3.308 1.178 3.346 0 6.393-2.692 6.393-8.617-.019-5.421-3.103-8.374-6.374-8.374zm-1.121 12.879c-1.103 0-1.757-.393-2.206-.879l-.019-6.935c.486-.542 1.159-.916 2.224-.916 1.701 0 2.879 1.907 2.879 4.355 0 2.505-1.159 4.374-2.879 4.374zM31.738.991v3.813l4.692-1.009V0zm0 5.233h4.692v16.355h-4.692zM26.71 7.607l-.299-1.383h-4.037v16.355h4.673V11.495c1.103-1.439 2.972-1.178 3.551-.972V6.224C30 6 27.813 5.589 26.71 7.607zm-9.345-5.439l-4.561.972-.019 14.972c0 2.766 2.075 4.804 4.841 4.804 1.533 0 2.654-.28 3.271-.617v-3.794c-.598.243-3.551 1.103-3.551-1.664v-6.636h3.551V6.224h-3.551zM4.729 10.972c0-.729.598-1.009 1.589-1.009 1.421 0 3.215.43 4.636 1.196V6.766c-1.551-.617-3.084-.86-4.636-.86C2.523 5.907 0 7.888 0 11.196c0 5.159 7.103 4.336 7.103 6.561 0 .86-.748 1.14-1.794 1.14-1.551 0-3.533-.636-5.103-1.495v4.449c1.738.748 3.495 1.065 5.103 1.065 3.888 0 6.561-1.925 6.561-5.271-.019-5.57-7.14-4.579-7.14-6.673z"/>
</svg>
